{
    "asset" : {
        "generator" : "Khronos glTF Blender I/O v1.3.48",
        "version" : "2.0"
    },
    "extensionsUsed" : [
        "KHR_lights_punctual"
    ],
    "extensionsRequired" : [
        "KHR_lights_punctual"
    ],
    "extensions" : {
        "KHR_lights_punctual" : {
            "lights" : [
                {
                    "color" : [
                        0.22506669163703918,
                        0.47000652551651,
                        1
                    ],
                    "intensity" : 2,
                    "type" : "directional",
                    "name" : "Light"
                },
                {
                    "color" : [
                        1,
                        0.8815637826919556,
                        0.3669334948062897
                    ],
                    "intensity" : 1000,
                    "type" : "point",
                    "name" : "Light.002"
                },
                {
                    "color" : [
                        1,
                        0.025367027148604393,
                        0.02889728546142578
                    ],
                    "intensity" : 3000,
                    "spot" : {
                        "innerConeAngle" : 0.12828169763088226,
                        "outerConeAngle" : 0.513126790523529
                    },
                    "type" : "spot",
                    "name" : "Spot"
                }
            ]
        }
    },
    "scene" : 0,
    "scenes" : [
        {
            "name" : "Scene",
            "nodes" : [
                0,
                2,
                4,
                5,
                6,
                8,
                10
            ]
        }
    ],
    "nodes" : [
        {
            "mesh" : 0,
            "name" : "Cube"
        },
        {
            "extensions" : {
                "KHR_lights_punctual" : {
                    "light" : 0
                }
            },
            "name" : "Light_Orientation",
            "rotation" : [
                -0.7071067690849304,
                0,
                0,
                0.7071067690849304
            ]
        },
        {
            "children" : [
                1
            ],
            "name" : "Light",
            "rotation" : [
                0.2705019414424896,
                0.5292612910270691,
                0.5030233860015869,
                -0.6274381875991821
            ]
        },
        {
            "camera" : 0,
            "name" : "Camera_Orientation",
            "rotation" : [
                -0.7071067690849304,
                0,
                0,
                0.7071067690849304
            ]
        },
        {
            "children" : [
                3
            ],
            "name" : "Camera",
            "rotation" : [
                0.483536034822464,
                0.33687159419059753,
                -0.20870360732078552,
                0.7804827094078064
            ],
            "translation" : [
                7.358891487121582,
                4.958309173583984,
                6.925790786743164
            ]
        },
        {
            "mesh" : 1,
            "name" : "bunny",
            "rotation" : [
                0.6179797053337097,
                0.3436584770679474,
                -0.34365853667259216,
                0.6179795861244202
            ],
            "translation" : [
                1.0904430150985718,
                -0.5035820007324219,
                1.8499336242675781
            ]
        },
        {
            "mesh" : 2,
            "name" : "Sphere",
            "translation" : [
                0.606456995010376,
                1.1724317073822021,
                -1.839731216430664
            ]
        },
        {
            "extensions" : {
                "KHR_lights_punctual" : {
                    "light" : 1
                }
            },
            "name" : "Light2_Orientation",
            "rotation" : [
                -0.7071067690849304,
                0,
                0,
                0.7071067690849304
            ]
        },
        {
            "children" : [
                7
            ],
            "name" : "Light2",
            "rotation" : [
                -0.25802555680274963,
                0.932283878326416,
                -0.18820659816265106,
                0.1698465645313263
            ],
            "translation" : [
                1.4919253587722778,
                3.6794509887695312,
                1.0137966871261597
            ]
        },
        {
            "extensions" : {
                "KHR_lights_punctual" : {
                    "light" : 2
                }
            },
            "name" : "Spot_Orientation",
            "rotation" : [
                -0.7071067690849304,
                0,
                0,
                0.7071067690849304
            ]
        },
        {
            "children" : [
                9
            ],
            "name" : "Spot",
            "rotation" : [
                -0.11170737445354462,
                0.10224621742963791,
                0.1541561782360077,
                0.9763724207878113
            ],
            "translation" : [
                -5.507813453674316,
                7.920771598815918,
                -3.6445088386535645
            ]
        }
    ],
    "cameras" : [
        {
            "name" : "Camera",
            "perspective" : {
                "aspectRatio" : 1.7777777777777777,
                "yfov" : 0.39959648408210363,
                "zfar" : 100,
                "znear" : 0.10000000149011612
            },
            "type" : "perspective"
        }
    ],
    "materials" : [
        {
            "doubleSided" : true,
            "emissiveFactor" : [
                0,
                0,
                0
            ],
            "name" : "Material",
            "normalTexture" : {
                "index" : 0,
                "texCoord" : 0
            },
            "pbrMetallicRoughness" : {
                "baseColorTexture" : {
                    "index" : 1,
                    "texCoord" : 0
                },
                "metallicFactor" : 0,
                "roughnessFactor" : 0.4000000059604645
            }
        },
        {
            "doubleSided" : true,
            "emissiveFactor" : [
                0,
                0,
                0
            ],
            "name" : "Bunny",
            "pbrMetallicRoughness" : {
                "baseColorFactor" : [
                    0.4331595301628113,
                    0.8000000715255737,
                    0.25498610734939575,
                    1
                ],
                "metallicFactor" : 0,
                "roughnessFactor" : 0.5
            }
        },
        {
            "doubleSided" : true,
            "emissiveFactor" : [
                0,
                0,
                0
            ],
            "name" : "sphere",
            "normalTexture" : {
                "index" : 2,
                "texCoord" : 0
            },
            "pbrMetallicRoughness" : {
                "baseColorTexture" : {
                    "index" : 3,
                    "texCoord" : 0
                },
                "metallicFactor" : 0,
                "roughnessFactor" : 0.5
            }
        }
    ],
    "meshes" : [
        {
            "name" : "Cube",
            "primitives" : [
                {
                    "attributes" : {
                        "POSITION" : 0,
                        "NORMAL" : 1,
                        "TANGENT" : 2,
                        "TEXCOORD_0" : 3
                    },
                    "indices" : 4,
                    "material" : 0
                }
            ]
        },
        {
            "name" : "bunny",
            "primitives" : [
                {
                    "attributes" : {
                        "POSITION" : 5,
                        "NORMAL" : 6
                    },
                    "indices" : 7,
                    "material" : 1
                }
            ]
        },
        {
            "name" : "Sphere",
            "primitives" : [
                {
                    "attributes" : {
                        "POSITION" : 8,
                        "NORMAL" : 9,
                        "TANGENT" : 10,
                        "TEXCOORD_0" : 11
                    },
                    "indices" : 12,
                    "material" : 2
                }
            ]
        }
    ],
    "textures" : [
        {
            "source" : 0
        },
        {
            "source" : 1
        },
        {
            "source" : 2
        },
        {
            "source" : 3
        }
    ],
    "images" : [
        {
            "mimeType" : "image/png",
            "name" : "PavingStones070_2K_Normal",
            "uri" : "PavingStones070_2K_Normal.png"
        },
        {
            "mimeType" : "image/png",
            "name" : "PavingStones070_2K_Color",
            "uri" : "PavingStones070_2K_Color.png"
        },
        {
            "mimeType" : "image/png",
            "name" : "Wood049_2K_Normal",
            "uri" : "Wood049_2K_Normal.png"
        },
        {
            "mimeType" : "image/png",
            "name" : "Wood049_2K_Color",
            "uri" : "Wood049_2K_Color.png"
        }
    ],
    "accessors" : [
        {
            "bufferView" : 0,
            "componentType" : 5126,
            "count" : 14,
            "max" : [
                5.180966377258301,
                0.11416596174240112,
                5.180966377258301
            ],
            "min" : [
                -5.180966377258301,
                -0.11416596174240112,
                -5.180966377258301
            ],
            "type" : "VEC3"
        },
        {
            "bufferView" : 1,
            "componentType" : 5126,
            "count" : 14,
            "type" : "VEC3"
        },
        {
            "bufferView" : 2,
            "componentType" : 5126,
            "count" : 14,
            "type" : "VEC4"
        },
        {
            "bufferView" : 3,
            "componentType" : 5126,
            "count" : 14,
            "type" : "VEC2"
        },
        {
            "bufferView" : 4,
            "componentType" : 5123,
            "count" : 36,
            "type" : "SCALAR"
        },
        {
            "bufferView" : 5,
            "componentType" : 5126,
            "count" : 2503,
            "max" : [
                0.9269794821739197,
                0.8954975008964539,
                -0.5080322623252869
            ],
            "min" : [
                -1.4394609928131104,
                -0.9407116174697876,
                -2.8520054817199707
            ],
            "type" : "VEC3"
        },
        {
            "bufferView" : 6,
            "componentType" : 5126,
            "count" : 2503,
            "type" : "VEC3"
        },
        {
            "bufferView" : 7,
            "componentType" : 5123,
            "count" : 14904,
            "type" : "SCALAR"
        },
        {
            "bufferView" : 8,
            "componentType" : 5126,
            "count" : 2143,
            "max" : [
                0.7286633849143982,
                0.7286629676818848,
                0.7286637425422668
            ],
            "min" : [
                -0.7286631464958191,
                -0.7286629676818848,
                -0.7286629676818848
            ],
            "type" : "VEC3"
        },
        {
            "bufferView" : 9,
            "componentType" : 5126,
            "count" : 2143,
            "type" : "VEC3"
        },
        {
            "bufferView" : 10,
            "componentType" : 5126,
            "count" : 2143,
            "type" : "VEC4"
        },
        {
            "bufferView" : 11,
            "componentType" : 5126,
            "count" : 2143,
            "type" : "VEC2"
        },
        {
            "bufferView" : 12,
            "componentType" : 5123,
            "count" : 11904,
            "type" : "SCALAR"
        }
    ],
    "bufferViews" : [
        {
            "buffer" : 0,
            "byteLength" : 168,
            "byteOffset" : 0
        },
        {
            "buffer" : 0,
            "byteLength" : 168,
            "byteOffset" : 168
        },
        {
            "buffer" : 0,
            "byteLength" : 224,
            "byteOffset" : 336
        },
        {
            "buffer" : 0,
            "byteLength" : 112,
            "byteOffset" : 560
        },
        {
            "buffer" : 0,
            "byteLength" : 72,
            "byteOffset" : 672
        },
        {
            "buffer" : 0,
            "byteLength" : 30036,
            "byteOffset" : 744
        },
        {
            "buffer" : 0,
            "byteLength" : 30036,
            "byteOffset" : 30780
        },
        {
            "buffer" : 0,
            "byteLength" : 29808,
            "byteOffset" : 60816
        },
        {
            "buffer" : 0,
            "byteLength" : 25716,
            "byteOffset" : 90624
        },
        {
            "buffer" : 0,
            "byteLength" : 25716,
            "byteOffset" : 116340
        },
        {
            "buffer" : 0,
            "byteLength" : 34288,
            "byteOffset" : 142056
        },
        {
            "buffer" : 0,
            "byteLength" : 17144,
            "byteOffset" : 176344
        },
        {
            "buffer" : 0,
            "byteLength" : 23808,
            "byteOffset" : 193488
        }
    ],
    "buffers" : [
        {
            "byteLength" : 217296,
            "uri" : "bunny.bin"
        }
    ]
}
